<svg xmlns="http://www.w3.org/2000/svg" viewBox="0 0 64 64" role="img" aria-labelledby="title desc">
  <title id="title">PurwoEats RisolBoom favicon</title>
  <desc id="desc">Rounded green badge with a bold P, cream plate ring, and leaf accent.</desc>
  <defs>
    <linearGradient id="bg" x1="10" y1="8" x2="54" y2="56" gradientUnits="userSpaceOnUse">
      <stop offset="0" stop-color="#7d9a30" />
      <stop offset="1" stop-color="#35511f" />
    </linearGradient>
    <linearGradient id="leaf" x1="40" y1="13" x2="51" y2="24" gradientUnits="userSpaceOnUse">
      <stop offset="0" stop-color="#d9ed8f" />
      <stop offset="1" stop-color="#8eb84a" />
    </linearGradient>
    <filter id="shadow" x="-20%" y="-20%" width="140%" height="140%">
      <feDropShadow dx="0" dy="2" stdDeviation="2" flood-color="#243116" flood-opacity=".22" />
    </filter>
  </defs>

  <rect x="4" y="4" width="56" height="56" rx="18" fill="url(#bg)" />
  <circle cx="32" cy="34" r="19" fill="none" stroke="#fbfaec" stroke-opacity=".68" stroke-width="2.6" />
  <circle cx="32" cy="34" r="14.5" fill="#fbfaec" fill-opacity=".08" />

  <path
    d="M22 18h12.8c7.3 0 12.2 4.2 12.2 10.6 0 6.8-5 11-12.8 11H29v9.4h-7V18Zm7 5.8v10.1h5.3c3.5 0 5.7-1.9 5.7-5.1 0-3.1-2.1-5-5.7-5H29Z"
    fill="#fffdf4"
    filter="url(#shadow)"
  />

  <path
    d="M43.8 13.2c4.2.4 7.3 3.5 7.7 7.7-4.2-.4-7.3-3.5-7.7-7.7Z"
    fill="url(#leaf)"
  />
  <path
    d="M42.8 19.7c1.6-2 4.2-3.8 7.3-5"
    fill="none"
    stroke="#edf7bf"
    stroke-linecap="round"
    stroke-width="1.5"
  />
  <circle cx="45.5" cy="45.4" r="3.2" fill="#8b5a2d" fill-opacity=".95" />
</svg>
